<svg width="35" height="35" viewBox="0 0 35 35" fill="none" xmlns="http://www.w3.org/2000/svg">
<path d="M7 7.36842C7 3.29737 10.1325 0 14 0C17.8675 0 21 3.29737 21 7.36842C21 11.4395 17.8675 14.7368 14 14.7368C10.1325 14.7368 7 11.4395 7 7.36842ZM17.5 26.1579C17.5 24.3895 18.375 22.7316 19.6 21.6263V21.1842C19.6 20.4658 19.7225 19.7842 19.915 19.1211C18.1125 18.6789 16.1175 18.4211 14 18.4211C6.265 18.4211 0 21.7184 0 25.7895V29.4737H17.5V26.1579ZM35 26.3421V32.7895C35 33.8947 33.95 35 32.725 35H23.1C22.05 35 21 33.8947 21 32.6053V26.1579C21 25.0526 22.05 23.9474 23.1 23.9474V21.1842C23.1 18.6053 25.55 16.5789 28 16.5789C30.45 16.5789 32.9 18.6053 32.9 21.1842V23.9474C33.95 23.9474 35 25.0526 35 26.3421ZM30.625 21.1842C30.625 19.7105 29.4 18.7895 28 18.7895C26.6 18.7895 25.375 19.7105 25.375 21.1842V23.9474H30.625V21.1842Z" fill="#106F85"/>
</svg>
