<svg width="40" height="40" viewBox="0 0 40 40" fill="none" xmlns="http://www.w3.org/2000/svg">
<g clip-path="url(#clip0_1367_499)">
<path d="M37 19.85V9.66667C37 8.78261 36.6488 7.93477 36.0237 7.30964C35.3986 6.68452 34.5507 6.33333 33.6667 6.33333H26.7C26 4.4 24.1667 3 22 3C19.8333 3 18 4.4 17.3 6.33333H10.3333C8.5 6.33333 7 7.83333 7 9.66667V33C7 33.8841 7.35119 34.7319 7.97631 35.357C8.60143 35.9821 9.44928 36.3333 10.3333 36.3333H20.5167C22.6167 38.4 25.4833 39.6667 28.6667 39.6667C35.1167 39.6667 40.3333 34.45 40.3333 28C40.3333 24.8167 39.0667 21.95 37 19.85ZM22 6.33333C22.9167 6.33333 23.6667 7.08333 23.6667 8C23.6667 8.91667 22.9167 9.66667 22 9.66667C21.0833 9.66667 20.3333 8.91667 20.3333 8C20.3333 7.08333 21.0833 6.33333 22 6.33333ZM12 13H32V16.3333H12V13ZM17.1333 29.6667H12V26.3333H17.1333C17.05 26.8833 17 27.4333 17 28C17 28.5667 17.05 29.1167 17.1333 29.6667ZM12 23V19.6667H20.5167C19.5 20.6167 18.7333 21.75 18.1333 23H12ZM28.6667 36.3333C24.0667 36.3333 20.3333 32.6 20.3333 28C20.3333 23.4 24.0667 19.6667 28.6667 19.6667C33.2667 19.6667 37 23.4 37 28C37 32.6 33.2667 36.3333 28.6667 36.3333ZM29.5 28.4167L34.2667 31.2333L33.0167 33.2667L27 29.6667V21.3333H29.5V28.4167Z" fill="#106F85"/>
</g>
<defs>
<clipPath id="clip0_1367_499">
<rect width="40" height="40" fill="white"/>
</clipPath>
</defs>
</svg>
