<svg width="58" height="58" viewBox="0 0 58 58" fill="none" xmlns="http://www.w3.org/2000/svg">
<path fill-rule="evenodd" clip-rule="evenodd" d="M31.5893 2.58929C31.5893 1.90256 31.3165 1.24397 30.8309 0.758384C30.3453 0.272799 29.6867 0 29 0C28.3132 0 27.6546 0.272799 27.1691 0.758384C26.6835 1.24397 26.4107 1.90256 26.4107 2.58929V14.5H20.7143C20.304 14.4993 19.9028 14.6204 19.5615 14.8479C19.2202 15.0755 18.9541 15.3993 18.797 15.7782C18.6399 16.1572 18.5989 16.5743 18.6791 16.9766C18.7594 17.3789 18.9572 17.7483 19.2477 18.038L27.5334 26.3237C27.7258 26.5166 27.9544 26.6697 28.2061 26.7741C28.4577 26.8785 28.7275 26.9323 29 26.9323C29.2724 26.9323 29.5422 26.8785 29.7939 26.7741C30.0455 26.6697 30.2741 26.5166 30.4665 26.3237L38.7523 18.038C39.0427 17.7483 39.2406 17.3789 39.3208 16.9766C39.401 16.5743 39.36 16.1572 39.2029 15.7782C39.0458 15.3993 38.7798 15.0755 38.4384 14.8479C38.0971 14.6204 37.6959 14.4993 37.2857 14.5H31.5893V2.58929ZM16.3187 20.967L16.0825 20.7143H10.875C7.15882 20.7143 4.14282 23.7303 4.14282 27.4464V51.2679C4.14282 54.9881 7.15882 58 10.875 58H47.125C50.8453 58 53.8571 54.9881 53.8571 51.2679V27.4464C53.8571 23.7303 50.8453 20.7143 47.125 20.7143H41.9174L41.6812 20.9629L33.3955 29.2486C32.8184 29.826 32.1332 30.2841 31.379 30.5967C30.6248 30.9092 29.8164 31.0701 29 31.0701C28.1836 31.0701 27.3752 30.9092 26.6209 30.5967C25.8667 30.2841 25.1815 29.826 24.6044 29.2486L16.3187 20.967ZM48.6785 33.4329L30.1103 45.2483C29.7783 45.4591 29.3932 45.571 29 45.571C28.6067 45.571 28.2216 45.4591 27.8897 45.2483L9.32139 33.4329V51.2679C9.32139 52.1254 10.0174 52.8214 10.875 52.8214H47.125C47.537 52.8214 47.9322 52.6577 48.2235 52.3664C48.5149 52.075 48.6785 51.6799 48.6785 51.2679V33.4329Z" fill="#438BB2"/>
</svg>
