<svg width="55" height="55" viewBox="0 0 55 55" fill="none" xmlns="http://www.w3.org/2000/svg">
<path fill-rule="evenodd" clip-rule="evenodd" d="M26.0162 1.28337C26.4633 1.00707 26.9785 0.860718 27.5041 0.860718C28.0296 0.860718 28.5448 1.00707 28.9919 1.28337C30.0656 1.93649 31.7878 3.20493 34.1631 5.62608C35.3475 6.82199 36.4883 8.0603 37.5834 9.33858C38.193 10.0582 38.3442 10.9393 38.0222 11.6852C37.7014 12.43 36.9589 12.9285 36.0193 12.9892C34.709 13.0717 33.3971 13.1267 32.0845 13.1542V19.0449C32.0845 20.4623 31.2836 21.9107 29.7126 22.1902C29.1076 22.2991 28.3697 22.3759 27.5012 22.3759C26.6338 22.3759 25.897 22.2991 25.2897 22.1902C23.7199 21.9107 22.9179 20.4623 22.9179 19.0449V13.1553C21.6068 13.1264 20.2965 13.071 18.9876 12.9892C18.0481 12.9285 17.3056 12.43 16.9847 11.6852C16.6639 10.9405 16.814 10.0582 17.4247 9.33858C18.5198 8.0603 19.6606 6.82199 20.845 5.62608C23.2204 3.20493 24.9437 1.93649 26.0162 1.28337ZM27.5023 26.3851C26.3943 26.3851 25.4215 26.2866 24.5862 26.1376C20.4898 25.4077 18.9086 21.7078 18.9086 19.0449V17.0019L18.7264 16.9905C16.5035 16.8449 14.3035 15.5925 13.3032 13.2722L13.2562 13.1611C11.3323 13.2436 9.73848 13.3341 8.454 13.42C4.97067 13.6549 2.11296 16.2491 1.74629 19.8195C1.44608 22.7357 1.14587 27.2239 1.14587 33.5145C1.14587 39.8051 1.44608 44.2945 1.74629 47.2095C2.11296 50.7799 4.97067 53.3741 8.454 53.609C12.1252 53.8565 18.3334 54.1395 27.5012 54.1395C36.6679 54.1395 42.8783 53.8565 46.5484 53.609C50.0317 53.3741 52.8894 50.7799 53.2561 47.2095C53.5563 44.2945 53.8565 39.8051 53.8565 33.5145C53.8565 27.2239 53.5563 22.7357 53.2561 19.8195C52.8894 16.2491 50.0317 13.6549 46.5484 13.4212C44.9507 13.3147 43.3518 13.2284 41.7519 13.1622L41.7061 13.2722C40.7058 15.5914 38.5046 16.8449 36.2817 16.9905L36.0961 17.0019V19.0449C36.0961 21.709 34.5148 25.4077 30.4173 26.1376C29.4548 26.3057 28.4794 26.3885 27.5023 26.3851ZM49.2365 29.8318L48.6636 30.0862C46.9563 30.8424 44.6119 31.8508 42.0636 32.8614C39.5164 33.8697 36.7515 34.8861 34.2066 35.6503C31.6938 36.4066 29.2864 36.952 27.4989 36.952C25.7114 36.952 23.3051 36.4066 20.7912 35.6503C18.2474 34.8861 15.4825 33.8697 12.9365 32.8614C10.5251 31.9028 8.13438 30.8931 5.76587 29.833C5.74219 30.9788 5.72997 32.206 5.72921 33.5145C5.72921 39.6596 6.02254 43.992 6.30556 46.7409C6.43389 47.9933 7.40785 48.9443 8.76223 49.036C12.3223 49.2766 18.4285 49.5562 27.5012 49.5562C36.5739 49.5562 42.68 49.2755 46.2401 49.036C47.5945 48.9443 48.5685 47.9933 48.6968 46.7409C48.9798 43.9909 49.2732 39.6596 49.2732 33.5145C49.2724 32.2052 49.2602 30.9776 49.2365 29.8318Z" fill="#438BB2"/>
</svg>
