<svg width="45" height="45" viewBox="0 0 45 45" fill="none" xmlns="http://www.w3.org/2000/svg">
<path fill-rule="evenodd" clip-rule="evenodd" d="M15 13.125C15 11.1359 15.7902 9.22822 17.1967 7.8217C18.6032 6.41518 20.5109 5.625 22.5 5.625C24.4891 5.625 26.3968 6.41518 27.8033 7.8217C29.2098 9.22822 30 11.1359 30 13.125C30 15.1141 29.2098 17.0218 27.8033 18.4283C26.3968 19.8348 24.4891 20.625 22.5 20.625C20.5109 20.625 18.6032 19.8348 17.1967 18.4283C15.7902 17.0218 15 15.1141 15 13.125ZM15 24.375C12.5136 24.375 10.129 25.3627 8.37087 27.1209C6.61272 28.879 5.625 31.2636 5.625 33.75C5.625 35.2418 6.21763 36.6726 7.27252 37.7275C8.32742 38.7824 9.75816 39.375 11.25 39.375H33.75C35.2418 39.375 36.6726 38.7824 37.7275 37.7275C38.7824 36.6726 39.375 35.2418 39.375 33.75C39.375 31.2636 38.3873 28.879 36.6291 27.1209C34.871 25.3627 32.4864 24.375 30 24.375H15Z" fill="#106F85"/>
</svg>
